<?xml version="1.0" standalone="no"?>
<!DOCTYPE svg PUBLIC "-//W3C//DTD SVG 20010904//EN"
 "http://www.w3.org/TR/2001/REC-SVG-20010904/DTD/svg10.dtd">
<svg version="1.0" xmlns="http://www.w3.org/2000/svg"
 width="301.000000pt" height="88.000000pt" viewBox="0 0 301.000000 88.000000"
 preserveAspectRatio="xMidYMid meet">

<g transform="translate(0.000000,88.000000) scale(0.100000,-0.100000)"
fill="#000000" stroke="none">
<path d="M365 626 l-140 -31 -3 -176 -2 -177 97 -6 c54 -4 119 -9 146 -12 l47
-6 0 221 c0 122 -1 221 -2 220 -2 0 -66 -15 -143 -33z m-7 -75 c31 -29 82
-113 82 -135 0 -6 -15 -21 -33 -32 -31 -20 -34 -20 -54 -5 -11 9 -34 23 -50
32 -50 27 -82 126 -51 157 22 22 72 14 106 -17z m122 -201 c27 -64 -19 -113
-65 -70 -37 35 -37 56 -1 79 42 28 51 26 66 -9z"/>
<path d="M545 435 c0 -149 3 -195 13 -195 9 0 12 46 12 195 0 149 -3 195 -12
195 -10 0 -13 -46 -13 -195z"/>
<path d="M1762 555 c-71 -31 -60 -102 23 -147 52 -28 63 -52 32 -72 -13 -8
-24 -7 -48 7 -24 13 -35 15 -45 6 -21 -17 -17 -27 16 -44 102 -53 204 48 119
119 -17 14 -36 26 -43 26 -7 0 -22 9 -35 21 -17 16 -20 24 -10 35 15 19 58 18
65 -1 10 -26 44 -18 44 10 0 40 -65 62 -118 40z"/>
<path d="M696 468 c-16 -46 -37 -101 -48 -122 -23 -49 -23 -56 0 -56 13 0 24
13 35 40 15 39 17 40 62 40 45 0 47 -1 62 -40 11 -27 22 -40 35 -40 23 0 23 7
0 56 -11 21 -32 76 -48 122 -23 66 -33 82 -49 82 -16 0 -26 -16 -49 -82z m81
-49 c5 -28 4 -29 -35 -29 l-41 0 21 63 22 62 13 -34 c8 -18 17 -46 20 -62z"/>
<path d="M870 542 c0 -4 4 -12 10 -18 5 -5 11 -59 12 -119 3 -105 4 -110 26
-113 15 -2 22 2 22 12 0 9 -4 16 -10 16 -6 0 -10 45 -10 115 l0 115 -25 0
c-14 0 -25 -4 -25 -8z"/>
<path d="M950 540 c0 -5 5 -10 10 -10 6 0 10 -47 10 -120 0 -97 3 -120 14
-120 8 0 16 6 19 13 4 10 7 10 18 0 7 -7 30 -13 50 -13 55 0 83 38 76 104 -7
73 -60 107 -118 76 -17 -10 -19 -7 -19 19 0 16 -3 36 -6 45 -7 17 -54 22 -54
6z m154 -112 c22 -31 20 -68 -6 -95 -27 -28 -49 -29 -73 -3 -21 24 -24 82 -5
105 19 23 66 19 84 -7z"/>
<path d="M1920 515 c0 -14 -4 -25 -10 -25 -5 0 -10 -9 -10 -20 0 -11 5 -20 10
-20 6 0 10 -26 10 -59 0 -52 3 -62 26 -80 34 -27 74 -28 74 -3 0 11 -11 24
-25 30 -22 10 -25 18 -25 62 0 43 3 50 20 50 13 0 20 7 20 20 0 13 -7 20 -20
20 -15 0 -20 7 -20 25 0 20 -5 25 -25 25 -20 0 -25 -5 -25 -25z"/>
<path d="M2063 466 c-40 -34 -50 -74 -28 -119 46 -97 195 -65 195 42 0 57 -32
91 -91 98 -38 4 -50 1 -76 -21z m93 -24 c51 -34 29 -112 -32 -112 -21 0 -54
37 -54 60 0 40 55 73 86 52z"/>
<path d="M2240 465 c0 -14 5 -25 10 -25 6 0 10 -32 10 -75 0 -73 1 -75 25 -75
24 0 25 3 25 60 0 47 4 64 20 80 11 11 24 20 30 20 18 0 30 -39 30 -99 0 -53
2 -61 19 -61 16 0 19 10 23 60 3 45 10 66 26 82 33 33 50 11 54 -70 l3 -67 33
-3 c26 -3 32 0 32 17 0 11 -4 23 -10 26 -5 3 -10 26 -10 50 0 90 -41 127 -103
91 -27 -15 -31 -15 -47 -1 -21 19 -50 19 -75 1 -16 -11 -21 -11 -33 0 -7 8
-24 14 -38 14 -19 0 -24 -5 -24 -25z"/>
<path d="M2580 466 c0 -14 5 -26 10 -26 6 0 10 -43 10 -110 l0 -110 25 0 c23
0 25 4 25 47 0 37 3 44 12 35 21 -21 77 -14 103 13 36 35 36 115 -1 151 -21
22 -31 25 -62 20 -47 -8 -50 -8 -89 0 -30 6 -33 4 -33 -20z m159 -50 c12 -26
12 -33 0 -55 -18 -31 -50 -38 -73 -16 -34 35 -6 109 38 103 12 -2 27 -16 35
-32z"/>
<path d="M1150 467 c0 -8 7 -17 15 -21 11 -4 15 -21 15 -61 0 -31 5 -65 10
-76 13 -23 66 -26 97 -4 19 13 22 13 27 0 7 -19 56 -20 56 -1 0 8 -7 16 -15
20 -11 4 -15 23 -15 81 0 60 -3 75 -15 75 -12 0 -15 -14 -15 -63 0 -48 -4 -68
-17 -79 -55 -47 -81 -26 -85 67 -3 68 -4 70 -30 73 -19 2 -28 -1 -28 -11z"/>
<path d="M1370 466 c0 -8 5 -18 10 -21 6 -3 10 -40 10 -81 0 -59 3 -74 15 -74
11 0 15 13 15 53 0 64 18 101 50 105 35 6 50 -22 50 -95 0 -49 3 -63 15 -63
12 0 15 13 15 58 0 71 20 105 58 100 26 -3 27 -6 32 -78 5 -73 6 -75 33 -78
29 -4 39 21 12 32 -11 4 -15 22 -15 70 0 54 -3 67 -19 76 -29 15 -55 12 -83
-9 -24 -19 -24 -19 -36 0 -15 23 -54 25 -86 4 -21 -14 -24 -14 -29 0 -8 19
-47 20 -47 1z"/>
</g>
</svg>
