<svg id="b136069c-0b3b-442f-914a-06e4929a8a68" xmlns="http://www.w3.org/2000/svg" viewBox="0 0 155 60"><defs><style>.cls-1{fill:#202020;}</style></defs><title>Artboard 1</title><path class="cls-1" d="M73,30.3a2.88,2.88,0,0,0,2.06-2.85c0-2.14-1.7-3.42-4.55-3.42H61.05V37.15h9.54c3.07,0,4.83-1.36,4.83-3.73A3,3,0,0,0,73,30.3Zm-3,4.68H64V26.2h5.94c1.88,0,2.16.94,2.16,1.5,0,.74-.23,1.73-2.16,1.73h-4.2l-.77,2v0h5.11c1.57,0,2.36.59,2.36,1.74S71.63,35,70.06,35Zm52-11.4c-5.18,0-8.67,2.82-8.67,7s3.49,7,8.67,7,8.68-2.82,8.68-7S127.22,23.58,122,23.58Zm0,11.7c-3.35,0-5.59-1.89-5.59-4.69s2.24-4.68,5.59-4.68,5.61,1.88,5.61,4.68S125.38,35.28,122,35.28ZM46.16,24.37A8.29,8.29,0,0,0,30.8,22.7l-8,15.43H13.92l1.94-7.2A4.64,4.64,0,0,1,24.47,30l.21.41h.06l1.91-3.66A8.3,8.3,0,0,0,12.34,30L9.28,41.36a.32.32,0,0,0,.31.41H24.7a.49.49,0,0,0,.43-.26L34,24.38a4.65,4.65,0,0,1,8.61.93l3.45,12.82H32.81L30.9,34.46h-.06l-2,3.89,1.64,3.16a.48.48,0,0,0,.43.26H50.42a.32.32,0,0,0,.31-.41Zm47.2-.3v0H89.55l-8.06,6.62V24H78.56V37.15h2.93V33.71l3.6-3,5.14,6.46h3.55v0L87.35,29Zm9.23-.49c-5.18,0-8.66,2.82-8.66,7s3.48,7,8.66,7,8.69-2.82,8.69-7S107.79,23.58,102.59,23.58Zm0,11.7c-3.34,0-5.59-1.89-5.59-4.69s2.25-4.68,5.59-4.68,5.61,1.88,5.61,4.68S106,35.28,102.59,35.28Zm33.88-.55V24h-2.92V37.15h11.34l.88-2.34v-.08Z"/></svg>