<?xml version="1.0" encoding="utf-8"?>
<!-- Generator: Adobe Illustrator 26.2.1, SVG Export Plug-In . SVG Version: 6.00 Build 0)  -->
<svg version="1.1" id="Layer_1" xmlns="http://www.w3.org/2000/svg" xmlns:xlink="http://www.w3.org/1999/xlink" x="0px" y="0px"
	 viewBox="0 0 274 56" style="enable-background:new 0 0 274 56;" xml:space="preserve">
<style type="text/css">
	.st0{opacity:0.1;}
	.st1{fill:#E67828;}
	.st2{fill:#FFFFFF;}
</style>
<g id="Dex_120x120">
	<g id="samsungdex_logo" transform="translate(0.000000, 1.000000)">
		<g id="Group" transform="translate(1.253121, 0.000000)" class="st0">
			<g id="Path">
				<path d="M137-1c1.4,0,4,0.1,7.3,0.5c5.2,0.7,9.9,2.5,13.4,5.8h0c3.2,3.5,5.1,8.2,5.8,13.4c0.7,5,0.5,8.3,0.5,8.3
					s0.2,3.4-0.5,8.3c-0.7,5.2-2.5,9.9-5.8,13.4l0,0c-3.4,3.2-8.2,5.1-13.4,5.8c-3.3,0.4-5.9,0.5-7.3,0.5c-0.7,0-1,0-1,0s-0.4,0-1,0
					c-1.4,0-4-0.1-7.3-0.5c-5.2-0.7-9.9-2.5-13.4-5.8l0,0c-3.2-3.4-5.1-8.2-5.8-13.4c-0.7-5-0.5-8.3-0.5-8.3s-0.2-3.4,0.5-8.3
					c0.7-5.2,2.5-9.9,5.8-13.4h0c3.4-3.2,8.2-5.1,13.4-5.8c3.3-0.4,5.9-0.5,7.3-0.5c0.7,0,1,0,1,0S136.3-1,137-1"/>
			</g>
		</g>
		<path id="Path_00000143588577025236242490000006413259557330134662_" class="st1" d="M164,18.6c-0.7-5.2-2.5-9.9-5.7-13.3h0
			c-3.4-3.2-8.1-5.1-13.3-5.7C140-1.1,136.7-1,136.7-1s-3.4-0.2-8.3,0.5c-5.2,0.7-9.9,2.5-13.3,5.7c-3.2,3.4-5.1,8.1-5.7,13.3
			c-0.7,4.9-0.5,8.3-0.5,8.3s-0.2,3.4,0.5,8.3c0.7,5.2,2.5,9.9,5.7,13.3v0c3.4,3.2,8.1,5.1,13.3,5.7c4.9,0.7,8.3,0.5,8.3,0.5
			s3.4,0.2,8.3-0.5c5.2-0.7,9.9-2.5,13.3-5.7l0,0c3.2-3.4,5.1-8.1,5.7-13.3c0.7-4.9,0.5-8.3,0.5-8.3S164.7,23.5,164,18.6"/>
		<path id="Shape" class="st2" d="M119.3,19.9h3.9c1.2,0,2.3,0.2,3.2,0.5c0.9,0.4,1.7,0.9,2.4,1.5c0.7,0.6,1.1,1.4,1.5,2.2
			c0.3,0.9,0.5,1.8,0.5,2.8c0,1-0.2,1.9-0.6,2.8c-0.4,0.9-0.9,1.6-1.6,2.2c-0.7,0.6-1.5,1.1-2.4,1.5c-0.9,0.4-1.9,0.5-3,0.5h-4.1
			L119.3,19.9L119.3,19.9z M122,22.3v9.2h1c0.8,0,1.5-0.1,2.1-0.3c0.6-0.2,1.2-0.6,1.6-1c0.4-0.4,0.8-0.9,1-1.5
			c0.2-0.6,0.4-1.2,0.4-1.8c0-0.7-0.1-1.3-0.3-1.9c-0.2-0.6-0.5-1-1-1.5c-0.4-0.4-1-0.7-1.6-1c-0.7-0.2-1.4-0.3-2.3-0.3L122,22.3
			L122,22.3z"/>
		<path id="Shape_00000161619754204988824610000013978304317375881383_" class="st2" d="M138,33.9c-0.9,0-1.7-0.1-2.5-0.4
			c-0.8-0.3-1.4-0.7-1.9-1.2c-0.5-0.5-0.9-1.1-1.2-1.8c-0.3-0.7-0.4-1.5-0.4-2.2c0-0.8,0.2-1.6,0.5-2.3c0.3-0.7,0.7-1.3,1.3-1.8
			c0.5-0.5,1.2-0.9,1.9-1.2c0.7-0.3,1.5-0.5,2.4-0.5c0.9,0,1.7,0.1,2.4,0.4c0.7,0.3,1.4,0.7,1.9,1.2c0.5,0.5,0.9,1.1,1.2,1.8
			c0.3,0.7,0.4,1.4,0.4,2.2v0.9h-9.4c0.2,0.8,0.6,1.5,1.2,2c0.6,0.5,1.4,0.7,2.4,0.7c0.8,0,1.4-0.2,2-0.6c0.6-0.4,1-0.9,1.2-1.5
			l2.2,1.3c-0.5,0.9-1.2,1.7-2.1,2.3C140.4,33.6,139.3,33.9,138,33.9 M137.9,24.7c-0.8,0-1.5,0.2-2.1,0.5c-0.6,0.4-1,0.8-1.2,1.4
			h6.6c-0.2-0.6-0.6-1.1-1.1-1.4C139.5,24.8,138.8,24.7,137.9,24.7"/>
		<polygon id="Path_00000134946934292084016230000017144147144165002424_" class="st2" points="149.9,29.1 146.9,33.9 143.9,33.9 
			148.3,26.8 144,19.9 147,19.9 149.9,24.5 152.8,19.9 155.8,19.9 151.5,26.8 155.9,33.9 152.9,33.9 		"/>
	</g>
</g>
</svg>
